<svg width="200" height="200" viewBox="0 0 200 200" fill="none" xmlns="http://www.w3.org/2000/svg">
  <circle cx="100" cy="100" r="90" fill="#4CAF50"/>
  <circle cx="100" cy="100" r="90" stroke="#388E3C" stroke-width="5"/>

  <rect x="60" y="70" width="80" height="90" rx="8" fill="#FFFFFF"/>
  <rect x="60" y="70" width="80" height="90" rx="8" stroke="#2E7D32" stroke-width="3"/>

  <rect x="70" y="80" width="20" height="20" rx="3" fill="#81C784"/>
  <rect x="110" y="80" width="20" height="20" rx="3" fill="#81C784"/>
  <rect x="70" y="110" width="20" height="20" rx="3" fill="#81C784"/>
  <rect x="110" y="110" width="20" height="20" rx="3" fill="#81C784"/>

  <rect x="90" y="140" width="20" height="30" rx="3" fill="#6A1B9A"/>

  <path d="M70 50 L100 30 L130 50 Z" fill="#FFC107"/>
  <path d="M70 50 L100 30 L130 50 Z" stroke="#FFA000" stroke-width="3"/>

  <circle cx="100" cy="40" r="8" fill="#E53935"/>
  <path d="M100 48 V55" stroke="#B71C1C" stroke-width="3" stroke-linecap="round"/>
</svg>
